<svg width="100.000000" height="100.000000" viewBox="0 0 100 100" fill="none" xmlns="http://www.w3.org/2000/svg" xmlns:xlink="http://www.w3.org/1999/xlink">
	<desc>
			Created with Pixso.
	</desc>
	<defs>
		<clipPath id="clip16_690">
			<rect id="Ic_Commitment-Filled" width="100.000000" height="100.000000" transform="translate(-0.608154 0.000000)" fill="white" fill-opacity="0"/>
		</clipPath>
	</defs>
	<g clip-path="url(#clip16_690)">
		<path id="Vector" d="M42.89 74.94C62.49 74.94 78.39 61.3 78.39 44.47C78.39 27.64 62.49 14 42.89 14C23.28 14 7.39 27.64 7.39 44.47C7.39 52.13 10.68 59.14 16.13 64.49C15.7 68.92 14.28 73.77 12.71 77.41C12.36 78.21 13.04 79.12 13.92 78.98C23.93 77.37 29.88 74.9 32.47 73.61C35.87 74.5 39.37 74.95 42.89 74.94ZM42.92 78.99C65.06 78.99 83.01 63.43 83.01 44.23C83.01 41.09 82.53 38.04 81.62 35.14C90.26 40.31 95.94 49.01 95.94 58.86C95.94 66.08 92.9 72.68 87.87 77.72C88.27 81.88 89.58 86.45 91.03 89.88C91.35 90.64 90.73 91.49 89.91 91.36C80.67 89.84 75.18 87.52 72.79 86.3C69.66 87.14 66.43 87.56 63.18 87.56C53.98 87.56 45.66 84.23 39.71 78.88C40.78 78.96 41.85 78.99 42.92 78.99ZM26.42 37.93C26.42 36.67 27.44 35.65 28.7 35.65L45.08 35.65C46.33 35.65 47.35 36.67 47.35 37.93C47.35 39.18 46.33 40.2 45.08 40.2L28.7 40.2C27.44 40.2 26.42 39.18 26.42 37.93ZM26.42 53.44C26.42 52.19 27.44 51.17 28.7 51.17L58.01 51.17C59.26 51.17 60.28 52.19 60.28 53.44C60.28 54.7 59.26 55.72 58.01 55.72L28.7 55.72C27.44 55.72 26.42 54.7 26.42 53.44Z" fill="#9EA3B5" fill-opacity="1.000000" fill-rule="evenodd"/>
	</g>
</svg>
