<svg width="100.000000" height="100.000000" viewBox="0 0 100 100" fill="none" xmlns="http://www.w3.org/2000/svg" xmlns:xlink="http://www.w3.org/1999/xlink">
	<desc>
			Created with Pixso.
	</desc>
	<defs>
		<clipPath id="clip16_676">
			<rect id="Ic_Guarantee-Filled" width="100.000000" height="100.000000" fill="white" fill-opacity="0"/>
		</clipPath>
	</defs>
	<rect id="Ic_Guarantee-Filled" width="100.000000" height="100.000000" fill="#FFFFFF" fill-opacity="0"/>
	<g clip-path="url(#clip16_676)">
		<path id="Union" d="M44.42 10.41C47.57 7.17 52.76 7.17 55.9 10.41L57.7 12.25C59.22 13.82 61.31 14.7 63.5 14.68L66.08 14.66C70.55 14.63 74.18 18.25 74.15 22.72L74.12 25.58C74.11 27.73 74.95 29.79 76.47 31.3L78.5 33.34C81.63 36.46 81.63 41.53 78.5 44.65L76.47 46.69C74.95 48.2 74.11 50.26 74.12 52.4L74.15 55.27C74.18 59.73 70.55 63.36 66.08 63.33L63.5 63.31C61.31 63.29 59.22 64.17 57.7 65.74L55.9 67.58C52.76 70.82 47.57 70.82 44.42 67.58L42.63 65.74C41.11 64.17 39.01 63.29 36.83 63.31L34.24 63.33C29.78 63.36 26.15 59.73 26.18 55.27L26.2 52.4C26.22 50.26 25.37 48.2 23.86 46.69L21.82 44.65C18.7 41.53 18.7 36.46 21.82 33.34L23.86 31.3C25.37 29.79 26.22 27.73 26.2 25.58L26.18 22.72C26.15 18.25 29.78 14.63 34.24 14.66L36.83 14.68C39.01 14.7 41.11 13.82 42.63 12.25L44.42 10.41ZM66.62 34.85L66.59 34.83L64.18 32.45C64.04 32.31 63.88 32.2 63.69 32.12C63.51 32.04 63.31 32.01 63.11 32.01C62.79 32.01 62.47 32.11 62.21 32.3C62.21 32.28 62.21 32.26 62.21 32.24L62.22 32.21L62.22 32.21C62.25 31.75 62.3 31.06 61.85 30.44C61.32 29.72 60.74 29.05 60.11 28.42L60.1 28.41L60.1 28.41C59.16 27.49 57.13 25.75 54 24.48C52.82 23.99 51.55 23.74 50.27 23.75C48.05 23.75 46.37 24.75 45.72 25.34C45.35 25.69 45.02 26.07 44.72 26.48C44.58 26.68 44.51 26.91 44.51 27.16C44.51 27.4 44.59 27.63 44.74 27.82C44.89 28.02 45.09 28.16 45.33 28.22C45.56 28.29 45.81 28.28 46.03 28.19C46.23 28.12 46.43 28.06 46.64 28.01C47.06 27.92 47.5 27.89 47.93 27.93C48.86 28 49.96 28.46 50.44 28.85C51.27 29.51 51.66 30.4 51.73 31.74C51.74 32 51.18 33.01 50.32 34.16C50.16 34.38 50.08 34.65 50.1 34.92C50.11 35.19 50.23 35.44 50.42 35.64L52.84 38.06C53.05 38.26 53.32 38.38 53.61 38.39C53.89 38.39 54.17 38.29 54.39 38.1C55.07 37.49 56.12 36.57 56.48 36.34C57.02 36.01 57.41 35.95 57.51 35.93C57.79 35.91 58.07 35.96 58.31 36.1C58.31 36.11 58.31 36.12 58.3 36.14C58.3 36.14 58.3 36.15 58.29 36.16C58.29 36.16 58.29 36.16 58.29 36.17L58.16 36.29L58.14 36.31C58 36.45 57.88 36.62 57.81 36.8C57.73 36.99 57.69 37.18 57.69 37.38C57.69 37.58 57.73 37.78 57.81 37.96C57.89 38.15 58 38.32 58.14 38.46L60.55 40.84C60.69 40.98 60.86 41.09 61.04 41.17C61.23 41.24 61.42 41.28 61.62 41.28C62.02 41.28 62.41 41.12 62.69 40.84L66.6 36.99C66.61 36.98 66.62 36.96 66.63 36.95C66.9 36.66 67.04 36.29 67.04 35.9C67.03 35.51 66.88 35.14 66.62 34.85ZM51.86 38.57L50.03 36.73C49.6 36.31 49.03 36.07 48.44 36.07C47.85 36.07 47.27 36.3 46.85 36.72L34.09 48.5C33.62 48.94 33.32 49.5 33.29 50.12C33.28 50.43 33.33 50.74 33.44 51.03C33.55 51.32 33.72 51.58 33.94 51.81L36.68 54.58L36.68 54.58L36.68 54.58C37.11 55 37.68 55.24 38.28 55.25L38.36 55.25C38.99 55.22 39.55 54.93 39.99 54.46L51.85 41.75C52.06 41.55 52.23 41.3 52.34 41.02C52.46 40.75 52.52 40.46 52.52 40.16C52.52 39.87 52.46 39.57 52.35 39.3C52.24 39.02 52.07 38.78 51.86 38.57ZM56.01 74.74L65.01 92.13C65.74 93.54 67.74 93.58 68.53 92.2L73.09 84.12L68.46 76.54C67.88 75.6 68.18 74.36 69.12 73.79C70.06 73.21 71.29 73.51 71.87 74.45L76.55 82.12L86.12 83.09C87.7 83.25 88.83 81.6 88.1 80.19L78.58 61.78C76.23 66.29 71.49 69.37 66.04 69.33L63.45 69.31C62.91 69.3 62.38 69.52 62 69.91L60.21 71.76C58.96 73.04 57.54 74.04 56.01 74.74ZM13.86 80.18L22.63 63.24C25.17 66.94 29.45 69.36 34.29 69.33L36.88 69.31C37.42 69.3 37.95 69.52 38.33 69.91L40.12 71.76C41.72 73.42 43.64 74.59 45.68 75.27L36.95 92.13C36.22 93.54 34.22 93.58 33.44 92.2L28.81 84L33.37 76.54C33.95 75.6 33.65 74.36 32.71 73.79C31.76 73.21 30.53 73.51 29.96 74.45L25.26 82.13L15.84 83.09C14.26 83.25 13.13 81.6 13.86 80.18Z" fill="#9EA3B5" fill-opacity="1.000000" fill-rule="evenodd"/>
	</g>
</svg>
