<svg width="100.000000" height="100.000000" viewBox="0 0 100 100" fill="none" xmlns="http://www.w3.org/2000/svg" xmlns:xlink="http://www.w3.org/1999/xlink">
	<desc>
			Created with Pixso.
	</desc>
	<defs>
		<clipPath id="clip16_681">
			<rect id="Ic_Local-Filled" width="100.000000" height="100.000000" fill="white" fill-opacity="0"/>
		</clipPath>
	</defs>
	<g clip-path="url(#clip16_681)">
		<path id="Vector" d="M76.16 35.68C76.16 49.64 63.94 62.23 56.26 68.77C52.7 71.79 47.62 71.79 44.07 68.77C36.38 62.23 24.16 49.64 24.16 35.68C24.16 28.73 26.9 22.07 31.78 17.16C36.65 12.25 43.27 9.5 50.16 9.5C57.06 9.5 63.67 12.25 68.55 17.16C73.42 22.07 76.16 28.73 76.16 35.68ZM50.16 47.5C56.79 47.5 62.16 42.12 62.16 35.5C62.16 28.87 56.79 23.5 50.16 23.5C43.54 23.5 38.16 28.87 38.16 35.5C38.16 42.12 43.54 47.5 50.16 47.5ZM69.66 84L90.66 81.5L81.66 65L66.16 67.5L69.66 84ZM17.66 86L40.66 83L31.66 66.5L14.16 69.5L17.66 86ZM41.19 72.88L40.16 73L48.66 88L65.16 87L61.7 70.65C60.93 71.34 60.2 71.98 59.5 72.58C54.2 77.09 46.59 77.19 41.19 72.88Z" fill="#9EA3B5" fill-opacity="1.000000" fill-rule="evenodd"/>
	</g>
</svg>
