<svg width="100.000000" height="100.000000" viewBox="0 0 100 100" fill="none" xmlns="http://www.w3.org/2000/svg" xmlns:xlink="http://www.w3.org/1999/xlink">
	<desc>
			Created with Pixso.
	</desc>
	<defs>
		<clipPath id="clip16_678">
			<rect id="Ic_Quotes-Filled" width="100.000000" height="100.000000" fill="white" fill-opacity="0"/>
		</clipPath>
	</defs>
	<g clip-path="url(#clip16_678)">
		<path id="Vector" d="M57.47 15.55C57.47 15.31 57.37 15.08 57.2 14.91C57.03 14.75 56.81 14.65 56.57 14.65L31.42 14.65C28.8 14.65 26.29 15.69 24.44 17.54C22.59 19.4 21.55 21.91 21.55 24.53L21.55 74.82C21.55 77.44 22.59 79.95 24.44 81.8C26.29 83.65 28.8 84.69 31.42 84.69L67.34 84.69C69.96 84.69 72.48 83.65 74.33 81.8C76.18 79.95 77.22 77.44 77.22 74.82L77.22 70.86L76.03 72.05L66.37 74.27L66.05 74.3C65.65 74.34 65.24 74.35 64.84 74.32C63.86 74.28 62.9 74.04 62.01 73.62C61.06 73.15 60.21 72.48 59.55 71.65C58.88 70.82 58.41 69.85 58.17 68.81C57.93 67.78 57.92 66.7 58.15 65.66L58.15 65.63L60.31 56.3L77.22 39.35C77.2 39.14 77.11 38.94 76.96 38.79C76.79 38.62 76.56 38.53 76.32 38.53L60.16 38.53C59.45 38.53 58.76 38.24 58.26 37.74C57.75 37.23 57.47 36.55 57.47 35.83L57.47 15.55ZM64.25 17.03C63.78 16.64 63.15 17.04 63.15 17.66L63.15 32.4C63.15 32.63 63.24 32.84 63.39 33C63.55 33.16 63.75 33.25 63.97 33.25L74.73 33.25C75.12 33.25 75.36 32.83 75.14 32.5L65.31 18.2C65 17.75 64.65 17.37 64.25 17.03ZM87.72 39L93.37 44.66C93.56 44.84 93.71 45.06 93.81 45.3C93.91 45.54 93.96 45.8 93.96 46.06C93.96 46.32 93.91 46.58 93.81 46.82C93.71 47.06 93.57 47.28 93.38 47.46L90.24 50.6L81.78 42.15L84.92 39C85.3 38.63 85.8 38.43 86.32 38.43C86.85 38.43 87.35 38.63 87.72 39ZM28.7 43.96C28.7 42.53 29.85 41.37 31.28 41.37L42.49 41.37C43.92 41.37 45.07 42.53 45.07 43.96C45.07 45.39 43.92 46.55 42.49 46.55L31.28 46.55C29.85 46.55 28.7 45.39 28.7 43.96ZM65.02 58.91L63.2 66.76C63.14 67.05 63.14 67.35 63.21 67.63C63.27 67.92 63.4 68.19 63.59 68.42C63.77 68.65 64 68.83 64.27 68.96C64.53 69.09 64.82 69.16 65.12 69.16C65.25 69.17 65.39 69.17 65.53 69.16L73.43 67.34L77.22 63.56L87.29 53.51L78.83 45.06L65.02 58.91ZM28.7 56.89C28.7 55.46 29.85 54.31 31.28 54.31L51.11 54.31C52.54 54.31 53.7 55.46 53.7 56.89C53.7 58.32 52.54 59.48 51.11 59.48L31.28 59.48C29.85 59.48 28.7 58.32 28.7 56.89ZM28.7 69.82C28.7 68.4 29.85 67.24 31.28 67.24L51.11 67.24C52.54 67.24 53.7 68.4 53.7 69.82C53.7 71.25 52.54 72.41 51.11 72.41L31.28 72.41C29.85 72.41 28.7 71.25 28.7 69.82Z" fill="#9EA3B5" fill-opacity="1.000000" fill-rule="evenodd"/>
	</g>
</svg>
