<svg width="100.000000" height="100.000000" viewBox="0 0 100 100" fill="none" xmlns="http://www.w3.org/2000/svg" xmlns:xlink="http://www.w3.org/1999/xlink">
	<desc>
			Created with Pixso.
	</desc>
	<defs/>
	<path id="Vector" d="M8.33 49.49C8.33 26.48 26.98 7.83 49.99 7.83C73.01 7.83 91.66 26.48 91.66 49.49C91.66 72.51 73.01 91.16 49.99 91.16C26.98 91.16 8.33 72.51 8.33 49.49ZM43.16 26.58C43.99 26.32 44.82 26.11 45.65 25.94C58.93 23.36 71.85 31.93 74.6 45.2C74.95 46.9 75.11 48.58 75.11 50.24C75.11 59.41 69.99 67.82 61.97 72.07C61.88 72.11 61.79 72.15 61.7 72.19C60.72 72.69 59.69 73.13 58.62 73.5L59.38 71.48C59.51 71.13 59.57 70.77 59.57 70.42C59.57 69.2 58.83 68.06 57.62 67.6C56.07 67.02 54.33 67.8 53.75 69.36L50.76 77.3C50.63 77.65 50.57 78 50.57 78.36C50.57 79.32 51.03 80.26 51.86 80.83L58.57 85.47C59.93 86.42 61.81 86.08 62.75 84.71C63.11 84.19 63.29 83.59 63.29 83C63.29 82.05 62.83 81.11 61.99 80.53L60.27 79.33C66.05 77.38 70.93 73.81 74.52 69.25C74.67 69.12 74.81 68.97 74.94 68.81C77.03 66.06 78.65 62.98 79.72 59.7C79.8 59.44 79.85 59.19 79.87 58.94C80.69 56.16 81.13 53.24 81.13 50.25C81.13 49.16 81.07 48.07 80.95 46.97C80.98 46.81 80.99 46.65 80.99 46.48C80.99 46.35 80.98 46.21 80.97 46.07C80.74 44.39 80.37 42.7 79.85 41.03C79.33 39.36 78.67 37.76 77.91 36.25C77.77 35.97 77.59 35.73 77.39 35.52C75.45 31.94 72.83 28.84 69.74 26.34C69.58 26.11 69.38 25.91 69.15 25.74C66.4 23.64 63.32 22.02 60.04 20.95C59.82 20.88 59.6 20.83 59.38 20.81C55.41 19.6 51.14 19.17 46.81 19.68C46.68 19.68 46.55 19.69 46.41 19.71C45.08 19.89 43.74 20.16 42.4 20.53C34.22 22.72 27.62 28.07 23.68 34.98C23.53 35.23 23.43 35.49 23.37 35.76C22.54 37.32 21.84 38.95 21.29 40.64C21.19 40.95 21.14 41.26 21.14 41.57C21.14 42.84 21.95 44.02 23.22 44.44C24.8 44.95 26.5 44.09 27.02 42.51C27.88 39.87 29.19 37.39 30.87 35.18C31.02 34.98 31.14 34.78 31.23 34.57C33.3 32.03 35.88 29.89 38.86 28.33C39.01 28.28 39.16 28.22 39.31 28.14C40.53 27.53 41.81 27 43.16 26.58ZM34.17 58.4C34.21 58.43 34.24 58.47 34.28 58.51C35.39 59.62 36.82 59.83 37.78 59.83L44.6 59.83C45.61 59.83 46.91 59.57 47.95 58.53C48.26 58.21 48.51 57.87 48.71 57.51C48.8 57.51 48.9 57.52 48.99 57.52L50.33 57.52C50.53 57.9 50.8 58.28 51.14 58.63C51.16 58.64 51.18 58.66 51.19 58.67C52.24 59.68 53.54 60.01 54.68 60.01C55.57 60.01 56.64 59.81 57.58 59.15C58.41 59.75 59.33 59.93 60.09 59.93C60.62 59.93 61.3 59.85 61.98 59.53C62.64 59.84 63.3 59.93 63.86 59.93C64.75 59.93 65.91 59.69 66.86 58.74C67.81 57.79 68.05 56.6 68.05 55.73L68.05 53.32C68.05 52.52 67.95 51.63 67.61 50.77C67.25 49.87 66.62 49 65.62 48.42C65.08 48.09 64.52 47.91 63.97 47.8C63.78 47.34 63.49 46.87 63.07 46.45C62.13 45.53 60.97 45.29 60.09 45.29C59.93 45.29 59.75 45.29 59.58 45.31L59.58 44.44C59.58 43.4 59.34 42 58.24 40.89C57.25 39.86 55.97 39.48 54.8 39.48C53.91 39.48 52.97 39.67 52.09 40.16C51.24 40.64 50.6 41.31 50.13 42.01L48.33 44.64C48.16 43.99 47.9 43.35 47.51 42.75C46.75 41.55 45.67 40.71 44.43 40.17C43.2 39.64 41.84 39.44 40.48 39.44C39.6 39.44 38.71 39.54 37.84 39.73L37.83 39.73C36.89 39.94 36 40.29 35.15 40.75C34.35 41.18 33.55 41.87 33.08 42.9C32.79 43.52 32.63 44.19 32.63 44.89C32.63 45.09 32.64 45.3 32.67 45.51C32.68 45.56 32.69 45.61 32.7 45.65C32.84 46.46 33.19 47.22 33.72 47.87C33.74 47.89 33.77 47.92 33.79 47.95C34.4 48.63 35.2 49.14 36.14 49.37L36.17 49.37C36.22 49.38 36.27 49.4 36.32 49.4L34.74 51.05L34.74 51.06C34.33 51.49 33.96 51.96 33.65 52.48C33.64 52.51 33.62 52.54 33.6 52.57C33.16 53.38 32.98 54.24 32.98 55.07C32.98 56.06 33.21 57.34 34.17 58.4ZM45.65 56.33C45.65 56.34 45.65 56.34 45.65 56.34C45.63 56.35 45.61 56.37 45.6 56.38C45.35 56.57 45.02 56.66 44.6 56.66L37.78 56.66C37.6 56.66 37.43 56.65 37.28 56.62C36.96 56.57 36.7 56.45 36.52 56.27C36.27 55.99 36.15 55.59 36.15 55.07C36.15 54.71 36.23 54.38 36.38 54.09C36.44 53.99 36.51 53.89 36.58 53.8C36.58 53.79 36.58 53.78 36.59 53.78L36.6 53.76L36.62 53.74C36.74 53.57 36.88 53.41 37.03 53.25L40.47 49.66C40.58 49.54 40.68 49.42 40.77 49.31L40.78 49.3C41.01 49.03 41.2 48.79 41.35 48.56C41.43 48.45 41.49 48.34 41.54 48.24C41.77 47.85 41.88 47.46 41.88 47.07C41.88 46.57 41.71 46.2 41.39 45.95Q41.3 45.88 41.19 45.82Q40.89 45.66 40.48 45.61Q40.25 45.58 39.97 45.58C39.72 45.58 39.45 45.61 39.16 45.67L39.15 45.67C39.09 45.68 39.03 45.7 38.97 45.71Q38.85 45.74 38.72 45.78Q38.72 45.78 38.72 45.78C38.5 45.85 38.27 45.94 38.03 46.05L38.02 46.05C37.96 46.08 37.9 46.11 37.84 46.14C37.48 46.3 37.16 46.35 36.87 46.28C36.6 46.22 36.36 46.07 36.17 45.85Q36.05 45.7 35.96 45.54L35.96 45.54Q35.86 45.33 35.82 45.08Q35.8 44.99 35.8 44.89C35.8 44.67 35.85 44.45 35.95 44.24C36.07 43.99 36.26 43.78 36.53 43.61C36.57 43.58 36.61 43.56 36.66 43.54L36.67 43.53C36.93 43.39 37.18 43.27 37.45 43.16C37.71 43.06 37.97 42.97 38.24 42.9L38.29 42.88L38.34 42.87Q38.43 42.85 38.52 42.83C39.01 42.72 39.49 42.66 39.97 42.63C40.14 42.62 40.31 42.61 40.48 42.61C41.07 42.61 41.59 42.66 42.07 42.75C42.48 42.83 42.84 42.94 43.17 43.08C43.9 43.4 44.46 43.86 44.84 44.46C45.22 45.05 45.41 45.78 45.41 46.65C45.41 47.2 45.32 47.74 45.15 48.26C45 48.79 44.74 49.31 44.37 49.83C44.23 50.04 44.07 50.26 43.88 50.48C43.86 50.51 43.84 50.54 43.81 50.57C43.56 50.87 43.27 51.18 42.94 51.5L40.67 53.74L44.6 53.74C44.79 53.74 44.95 53.75 45.1 53.79C45.11 53.79 45.12 53.79 45.13 53.8C45.36 53.86 45.55 53.96 45.7 54.11C45.97 54.36 46.1 54.72 46.1 55.19C46.1 55.54 46.02 55.83 45.88 56.06C45.83 56.14 45.77 56.22 45.7 56.29C45.69 56.3 45.67 56.32 45.66 56.33C45.66 56.33 45.65 56.33 45.65 56.33ZM52.94 55.05L52.94 54.34L48.99 54.34C48.42 54.34 47.97 54.21 47.64 53.95C47.32 53.69 47.17 53.29 47.17 52.76C47.17 52.72 47.17 52.68 47.17 52.64C47.17 52.62 47.17 52.59 47.17 52.56C47.18 52.53 47.18 52.5 47.18 52.47C47.18 52.46 47.18 52.46 47.18 52.46Q47.2 52.35 47.22 52.24L47.22 52.24L47.22 52.24Q47.27 52.04 47.34 51.85C47.37 51.78 47.4 51.71 47.44 51.63C47.44 51.63 47.45 51.62 47.45 51.62C47.47 51.58 47.49 51.53 47.51 51.49C47.58 51.36 47.66 51.23 47.76 51.09C47.82 50.99 47.89 50.88 47.97 50.77L52.76 43.79C53.02 43.4 53.31 43.11 53.64 42.93C53.97 42.74 54.35 42.65 54.8 42.65C55.3 42.65 55.69 42.8 55.98 43.1C56.26 43.39 56.41 43.84 56.41 44.44L56.41 51.62L56.88 51.62C57.24 51.62 57.54 51.68 57.77 51.81C57.84 51.84 57.9 51.88 57.95 51.93C57.97 51.94 57.98 51.96 58 51.97C58 51.98 58.01 51.98 58.01 51.99C58.02 51.99 58.02 51.99 58.02 52C58.07 52.04 58.12 52.1 58.16 52.15C58.31 52.37 58.39 52.64 58.39 52.97C58.39 53.18 58.36 53.36 58.3 53.52C58.29 53.57 58.27 53.62 58.24 53.67C58.18 53.79 58.1 53.9 58 53.99C57.98 54 57.97 54.01 57.96 54.03C57.96 54.03 57.95 54.03 57.95 54.03C57.7 54.24 57.35 54.34 56.88 54.34L56.41 54.34L56.41 55.05C56.41 55.3 56.38 55.53 56.32 55.73C56.25 55.99 56.13 56.21 55.96 56.39L55.95 56.39C55.66 56.69 55.24 56.84 54.68 56.84C54.13 56.84 53.7 56.69 53.39 56.39C53.09 56.08 52.94 55.64 52.94 55.05ZM52.94 51.62L52.94 47.8L50.36 51.62L52.94 51.62ZM59.34 48.72C59.41 48.65 59.49 48.6 59.58 48.56C59.72 48.49 59.88 48.46 60.07 48.46L60.09 48.46C60.12 48.46 60.15 48.46 60.18 48.46L60.18 48.46L60.18 48.46C60.19 48.46 60.21 48.46 60.22 48.46C60.48 48.48 60.69 48.57 60.85 48.72C60.88 48.75 60.91 48.78 60.93 48.82C60.93 48.82 60.94 48.82 60.94 48.83C61.05 48.97 61.11 49.16 61.12 49.39C61.12 49.42 61.12 49.46 61.12 49.49L61.12 51.7C61.18 51.61 61.25 51.54 61.32 51.46C61.36 51.43 61.4 51.39 61.45 51.35C61.53 51.29 61.62 51.22 61.72 51.17C61.85 51.09 61.99 51.04 62.13 50.99C62.17 50.98 62.21 50.97 62.25 50.96C62.45 50.91 62.66 50.88 62.89 50.88C63.34 50.88 63.72 50.97 64.01 51.15C64.09 51.19 64.16 51.25 64.23 51.31C64.24 51.31 64.24 51.32 64.24 51.32C64.25 51.32 64.25 51.32 64.25 51.32C64.26 51.33 64.27 51.34 64.28 51.35L64.29 51.37L64.29 51.37C64.45 51.52 64.57 51.71 64.66 51.95C64.81 52.31 64.88 52.76 64.88 53.32L64.88 55.73C64.88 56.07 64.79 56.32 64.62 56.5C64.5 56.61 64.36 56.69 64.19 56.73C64.09 56.75 63.98 56.76 63.86 56.76C63.53 56.76 63.27 56.68 63.1 56.5C62.92 56.32 62.83 56.07 62.83 55.73L62.83 53.4C62.83 53.38 62.83 53.37 62.83 53.35C62.83 53.34 62.83 53.33 62.83 53.32C62.83 53.27 62.83 53.23 62.83 53.18L62.83 53.18L62.82 53.15L62.82 53.13L62.82 53.11L62.82 53.1C62.81 53.04 62.8 52.99 62.78 52.94C62.76 52.86 62.74 52.8 62.71 52.74L62.7 52.73C62.68 52.7 62.67 52.68 62.65 52.66C62.61 52.61 62.55 52.56 62.49 52.53C62.48 52.52 62.48 52.52 62.47 52.51C62.4 52.48 62.33 52.46 62.25 52.45Q62.19 52.44 62.13 52.44C62.04 52.44 61.95 52.45 61.87 52.47C61.75 52.5 61.64 52.54 61.55 52.61C61.49 52.65 61.44 52.69 61.4 52.74C61.33 52.81 61.28 52.89 61.24 52.97C61.18 53.09 61.14 53.24 61.13 53.4C61.12 53.44 61.12 53.48 61.12 53.52L61.12 55.73C61.12 56.42 60.78 56.76 60.09 56.76C59.97 56.76 59.87 56.75 59.77 56.73C59.74 56.72 59.71 56.71 59.68 56.7C59.57 56.67 59.47 56.61 59.39 56.54C59.38 56.53 59.37 56.53 59.36 56.52C59.35 56.51 59.35 56.5 59.34 56.5C59.17 56.32 59.08 56.07 59.08 55.73L59.08 49.49C59.08 49.4 59.08 49.31 59.1 49.23C59.1 49.22 59.1 49.21 59.1 49.2C59.12 49.12 59.14 49.04 59.18 48.96C59.22 48.87 59.27 48.79 59.34 48.72ZM26.02 53.45C25.8 51.8 24.28 50.65 22.63 50.87C21.12 51.08 20.02 52.37 20.02 53.85C20.02 53.99 20.03 54.12 20.05 54.26C20.28 55.94 20.65 57.63 21.17 59.3C21.69 60.97 22.34 62.57 23.11 64.09C23.86 65.57 25.67 66.17 27.16 65.41C28.21 64.88 28.81 63.82 28.81 62.72C28.81 62.26 28.7 61.8 28.48 61.36C27.87 60.15 27.34 58.86 26.92 57.51C26.5 56.16 26.2 54.8 26.02 53.45ZM35.52 69.8C34.19 68.79 32.3 69.05 31.29 70.37C30.88 70.92 30.68 71.56 30.68 72.2C30.68 73.11 31.09 74 31.87 74.6C34.61 76.69 37.7 78.31 40.98 79.38C42.56 79.9 44.26 79.04 44.78 77.45C44.88 77.14 44.93 76.83 44.93 76.52C44.93 75.25 44.12 74.07 42.85 73.65C40.21 72.79 37.73 71.49 35.52 69.8Z" fill="#9EA3B5" fill-opacity="1.000000" fill-rule="evenodd"/>
</svg>
