<svg width="100.000000" height="100.000000" viewBox="0 0 100 100" fill="none" xmlns="http://www.w3.org/2000/svg" xmlns:xlink="http://www.w3.org/1999/xlink">
	<desc>
			Created with Pixso.
	</desc>
	<defs>
		<clipPath id="clip16_687">
			<rect id="Ic_Calendar-Filled" width="100.000000" height="100.000000" fill="white" fill-opacity="0"/>
		</clipPath>
	</defs>
	<g clip-path="url(#clip16_687)">
		<path id="Vector" d="M65.63 10.34C67.4 10.34 68.8 11.73 68.81 13.59L68.81 16.75C80.29 17.66 87.87 25.59 87.88 37.75L87.91 58.87C84.32 55.83 79.63 54 74.5 54C71.61 54 68.87 54.58 66.38 55.62L66.38 55.25C66.38 54.25 65.56 53.44 64.57 53.44L58.7 53.44C57.7 53.44 56.89 54.25 56.89 55.25L56.89 61.12C56.89 61.72 57.19 62.26 57.65 62.59C55.35 65.83 54 69.76 54 74C54 81.06 57.75 87.27 63.42 90.83L34.39 90.87C21.31 90.89 12.99 82.54 12.97 69.24L12.93 38.02C12.91 25.78 20.23 17.87 31.7 16.8L31.7 13.64C31.69 11.78 33.05 10.38 34.86 10.38C36.67 10.38 38.03 11.77 38.03 13.63L38.04 16.58L62.47 16.55L62.47 13.59C62.47 11.74 63.82 10.34 65.63 10.34ZM62.48 23.05L38.05 23.09L38.05 26.5C38.05 28.32 36.7 29.76 34.89 29.76C33.08 29.76 31.72 28.33 31.72 26.51L31.71 23.26C23.69 24.07 19.25 28.85 19.26 38.01L19.27 39.32L81.55 39.24L81.55 37.76C81.37 28.68 76.88 23.92 68.82 23.21L68.82 26.46C68.82 28.28 67.43 29.72 65.66 29.72C63.85 29.72 62.49 28.29 62.49 26.47L62.48 23.05ZM24.22 53.44C23.22 53.44 22.41 54.25 22.41 55.25L22.41 61.12C22.41 62.12 23.22 62.93 24.22 62.93L30.08 62.93C31.08 62.93 31.89 62.12 31.89 61.12L31.89 55.25C31.89 54.25 31.08 53.44 30.08 53.44L24.22 53.44ZM41.46 53.44C40.46 53.44 39.65 54.25 39.65 55.25L39.65 61.12C39.65 62.12 40.46 62.93 41.46 62.93L47.32 62.93C48.32 62.93 49.13 62.12 49.13 61.12L49.13 55.25C49.13 54.25 48.32 53.44 47.32 53.44L41.46 53.44ZM57.75 74.13C57.75 65.09 65.28 57.75 74.56 57.75C83.85 57.75 91.38 65.09 91.38 74.13C91.38 83.18 83.85 90.51 74.56 90.51C65.28 90.51 57.75 83.18 57.75 74.13ZM75 65.43C76 65.43 76.81 66.24 76.81 67.24L76.81 74.48L80.04 75.93C80.96 76.33 81.37 77.41 80.96 78.32C80.55 79.23 79.48 79.64 78.57 79.23L74.26 77.31C73.61 77.02 73.19 76.37 73.19 75.66L73.19 67.24C73.19 66.24 74 65.43 75 65.43ZM22.41 70.77C22.41 69.77 23.22 68.96 24.22 68.96L30.08 68.96C31.08 68.96 31.89 69.77 31.89 70.77L31.89 76.63C31.89 77.63 31.08 78.44 30.08 78.44L24.22 78.44C23.22 78.44 22.41 77.63 22.41 76.63L22.41 70.77ZM39.65 70.77C39.65 69.77 40.46 68.96 41.46 68.96L47.32 68.96C48.32 68.96 49.13 69.77 49.13 70.77L49.13 76.63C49.13 77.63 48.32 78.44 47.32 78.44L41.46 78.44C40.46 78.44 39.65 77.63 39.65 76.63L39.65 70.77Z" fill="#9EA3B5" fill-opacity="1.000000" fill-rule="evenodd"/>
	</g>
</svg>
