<svg width="40.000000" height="40.000000" viewBox="0 0 40 40" fill="none" xmlns="http://www.w3.org/2000/svg" xmlns:xlink="http://www.w3.org/1999/xlink">
	<desc>
			Created with Pixso.
	</desc>
	<defs>
		<clipPath id="clip16_673">
			<rect id="Ic_Door-Filled" width="40.000000" height="40.000000" fill="white" fill-opacity="0"/>
		</clipPath>
	</defs>
	<g clip-path="url(#clip16_673)">
		<path id="Vector" d="M10.22 0.72L21.65 0.72C22.41 0.72 23.14 1.03 23.68 1.56C24.21 2.1 24.51 2.82 24.51 3.58L24.51 7.87L20.69 7.87C19.55 6.94 18.12 6.44 16.65 6.44C16.23 6.44 15.8 6.48 15.38 6.56C14.29 6.78 13.28 7.28 12.44 8.01C11.6 8.74 10.96 9.67 10.59 10.72C10.22 11.76 10.12 12.89 10.32 13.98C10.51 15.08 10.98 16.1 11.69 16.96C12.77 18.27 14.32 19.1 16 19.27C17.69 19.44 19.37 18.94 20.69 17.87L24.51 17.87L23.97 36.41C23.97 37.17 23.67 37.89 23.13 38.43C22.59 38.96 21.87 39.27 21.11 39.27L9.68 39.27C8.92 39.27 8.19 38.96 7.66 38.43C7.12 37.89 6.82 37.17 6.82 36.41L7.36 3.58C7.36 2.82 7.67 2.1 8.2 1.56C8.74 1.03 9.46 0.72 10.22 0.72ZM19.47 9.97L36.29 9.97C36.44 9.97 36.59 10.03 36.7 10.14C36.81 10.25 36.87 10.4 36.87 10.55L36.87 15.19C36.87 15.34 36.81 15.49 36.7 15.6C36.59 15.71 36.44 15.77 36.29 15.77L19.47 15.77C18.9 16.33 18.18 16.71 17.39 16.86C16.61 17.01 15.8 16.92 15.06 16.61C14.32 16.3 13.69 15.78 13.25 15.12C12.81 14.45 12.57 13.67 12.57 12.87C12.57 12.07 12.81 11.29 13.25 10.63C13.69 9.96 14.32 9.44 15.06 9.13C15.8 8.82 16.61 8.74 17.39 8.89C18.18 9.04 18.9 9.41 19.47 9.97ZM17.13 24.84C16.63 24.46 16.02 24.26 15.39 24.26C14.76 24.26 14.15 24.46 13.65 24.84C13.15 25.23 12.8 25.76 12.63 26.37C12.47 26.97 12.51 27.62 12.75 28.2C12.99 28.78 13.42 29.26 13.96 29.58L13.96 32.84C13.96 33.03 14.04 33.21 14.17 33.34C14.31 33.47 14.49 33.55 14.68 33.55L16.11 33.55C16.3 33.55 16.48 33.47 16.61 33.34C16.75 33.21 16.82 33.03 16.82 32.84L16.82 29.58C17.37 29.26 17.79 28.78 18.03 28.2C18.27 27.62 18.32 26.97 18.15 26.37C17.99 25.76 17.63 25.23 17.13 24.84Z" fill="#FFFFFF" fill-opacity="1.000000" fill-rule="evenodd"/>
	</g>
</svg>
