<svg width="40.000000" height="40.000000" viewBox="0 0 40 40" fill="none" xmlns="http://www.w3.org/2000/svg" xmlns:xlink="http://www.w3.org/1999/xlink">
	<desc>
			Created with Pixso.
	</desc>
	<defs>
		<clipPath id="clip16_667">
			<rect id="Ic_Repair_Filled" width="40.000000" height="40.000000" fill="white" fill-opacity="0"/>
		</clipPath>
	</defs>
	<g clip-path="url(#clip16_667)">
		<path id="Union" d="M28.67 7.95C28.12 8.53 27.81 9.31 27.83 10.11C27.86 11.78 29.25 13.11 30.92 13.07C31.73 13.06 32.49 12.72 33.05 12.14L37.08 7.95C37.88 9.53 38.16 11.32 37.9 13.08C37.64 14.83 36.83 16.45 35.61 17.73C34.38 19.01 32.78 19.87 31.04 20.21C29.3 20.54 27.5 20.33 25.88 19.6C23.75 18.01 22.8 17.09 21.5 15.41C20.71 13.83 20.42 12.04 20.69 10.28C20.95 8.53 21.75 6.91 22.98 5.63C24.21 4.35 25.8 3.49 27.54 3.15C29.29 2.81 31.09 3.03 32.71 3.76L28.67 7.95ZM33.45 29.85L19.16 16.3C17.98 15.18 16.23 15.03 14.9 15.81L8.31 9.46L9.53 8.24L4.25 4.71L2 7.2L5.65 12.12L6.88 10.89L13.51 17.29C12.83 18.66 13.08 20.36 14.25 21.46L28.54 35.02C29.99 36.39 32.27 36.31 33.62 34.84C34.94 33.41 34.87 31.19 33.45 29.85ZM13.61 23.78L18.01 27.95L11.48 34.88C10.92 35.46 10.16 35.79 9.35 35.81C8.55 35.82 7.77 35.52 7.19 34.96C6.61 34.41 6.28 33.65 6.26 32.84C6.24 32.04 6.55 31.26 7.1 30.68L13.61 23.78Z" fill="#FFFFFF" fill-opacity="1.000000" fill-rule="evenodd"/>
	</g>
</svg>
