<svg width="24.000000" height="24.000000" viewBox="0 0 24 24" fill="none" xmlns="http://www.w3.org/2000/svg" xmlns:xlink="http://www.w3.org/1999/xlink">
	<desc>
			Created with Pixso.
	</desc>
	<defs>
		<clipPath id="clip17_636">
			<rect id="Ic_24-Guarantee" width="24.000000" height="24.000000" fill="white" fill-opacity="0"/>
		</clipPath>
	</defs>
	<rect id="Ic_24-Guarantee" width="24.000000" height="24.000000" fill="#FFFFFF" fill-opacity="0"/>
	<g clip-path="url(#clip17_636)">
		<path id="Star 6" d="M9.53 4C9.15 4.39 8.63 4.6 8.09 4.6L6.6 4.59C5.48 4.59 4.59 5.48 4.59 6.6L4.6 8.09C4.6 8.63 4.39 9.15 4 9.53L2.94 10.57C2.15 11.35 2.15 12.64 2.94 13.42L4 14.46C4.39 14.84 4.6 15.36 4.6 15.9L4.59 17.39C4.59 18.51 5.48 19.4 6.6 19.4L8.09 19.39C8.63 19.39 9.15 19.6 9.53 19.99L10.57 21.05C11.35 21.84 12.64 21.84 13.42 21.05L14.46 19.99C14.84 19.6 15.36 19.39 15.9 19.39L17.39 19.4C18.51 19.4 19.4 18.51 19.4 17.39L19.39 15.9C19.39 15.36 19.6 14.84 19.99 14.46L21.05 13.42C21.84 12.64 21.84 11.35 21.05 10.57L19.99 9.53C19.6 9.15 19.39 8.63 19.39 8.09L19.4 6.6C19.4 5.48 18.51 4.59 17.39 4.59L15.9 4.6C15.36 4.6 14.84 4.39 14.46 4L13.42 2.94C12.64 2.15 11.35 2.15 10.57 2.94L9.53 4Z" stroke="#FFFFFF" stroke-opacity="1.000000" stroke-width="2.000000"/>
		<path id="Vector" d="M16 10L11.62 14L9 12.11" stroke="#FFFFFF" stroke-opacity="1.000000" stroke-width="2.000000" stroke-linejoin="round" stroke-linecap="round"/>
	</g>
</svg>
