<svg width="40.000000" height="40.000000" viewBox="0 0 40 40" fill="none" xmlns="http://www.w3.org/2000/svg" xmlns:xlink="http://www.w3.org/1999/xlink">
	<desc>
			Created with Pixso.
	</desc>
	<defs>
		<clipPath id="clip16_670">
			<rect id="Ic_Bathroom-Filled" width="40.000000" height="40.000000" fill="white" fill-opacity="0"/>
		</clipPath>
	</defs>
	<g clip-path="url(#clip16_670)">
		<path id="Vector" d="M20 6.25L20 7.62C21.41 7.91 22.67 8.68 23.58 9.79C24.5 10.91 24.99 12.3 25 13.75C25 14.08 24.86 14.39 24.63 14.63C24.39 14.86 24.08 15 23.75 15L13.75 15C13.41 15 13.1 14.86 12.86 14.63C12.63 14.39 12.5 14.08 12.5 13.75C12.5 12.3 13 10.91 13.91 9.79C14.82 8.68 16.08 7.91 17.5 7.62L17.5 6.25C17.5 4.59 18.15 3 19.33 1.83C20.5 0.65 22.09 0 23.75 0C25.4 0 26.99 0.65 28.16 1.83C29.34 3 30 4.59 30 6.25L30 18.75L27.5 18.75L27.5 6.25C27.5 5.25 27.1 4.3 26.4 3.59C25.69 2.89 24.74 2.5 23.75 2.5C22.75 2.5 21.8 2.89 21.09 3.59C20.39 4.3 20 5.25 20 6.25ZM2.5 21.25L37.5 21.25C37.83 21.25 38.14 21.38 38.38 21.61C38.61 21.85 38.75 22.16 38.75 22.5L38.75 28.75C38.74 30.73 37.95 32.64 36.55 34.05C35.14 35.45 33.23 36.24 31.25 36.25L30 36.25L30 38.75C30 39.08 29.86 39.39 29.63 39.63C29.39 39.86 29.08 40 28.75 40C28.41 40 28.1 39.86 27.86 39.63C27.63 39.39 27.5 39.08 27.5 38.75L27.5 36.25L12.5 36.25L12.5 38.75C12.5 39.08 12.36 39.39 12.13 39.63C11.89 39.86 11.58 40 11.25 40C10.91 40 10.6 39.86 10.36 39.63C10.13 39.39 10 39.08 10 38.75L10 36.25L8.75 36.25C6.76 36.24 4.85 35.45 3.44 34.05C2.04 32.64 1.25 30.73 1.25 28.75L1.25 22.5C1.25 22.16 1.38 21.85 1.61 21.61C1.85 21.38 2.16 21.25 2.5 21.25Z" fill="#FFFFFF" fill-opacity="1.000000" fill-rule="evenodd"/>
	</g>
</svg>
