<svg width="40.000000" height="40.000000" viewBox="0 0 40 40" fill="none" xmlns="http://www.w3.org/2000/svg" xmlns:xlink="http://www.w3.org/1999/xlink">
	<desc>
			Created with Pixso.
	</desc>
	<defs>
		<clipPath id="clip16_656">
			<rect id="Ic-Plumbing-Filled" width="40.000000" height="40.000000" fill="white" fill-opacity="0"/>
		</clipPath>
	</defs>
	<g clip-path="url(#clip16_656)">
		<path id="Union" d="M33.35 7.36L29.37 3.55C27.91 2.14 25.52 2.14 24.06 3.55L18.75 8.63L22.72 12.44L26.7 8.63L33.35 15C34.4 13.98 35 12.61 35 11.18C35 9.74 34.4 8.37 33.35 7.36ZM30.71 17.68L25.54 12.66L22.93 15.18L17.1 9.54C16.01 8.48 14.27 8.48 13.21 9.53C12.95 9.77 12.74 10.07 12.6 10.39C12.47 10.71 12.39 11.06 12.39 11.41C12.39 11.75 12.47 12.1 12.6 12.42C12.74 12.75 12.95 13.04 13.21 13.28L19.04 18.92L6.07 31.44C4.64 32.83 4.64 35.08 6.07 36.46C7.5 37.84 9.83 37.84 11.26 36.46L28.12 20.18C28.29 20.34 28.49 20.47 28.72 20.56C28.94 20.65 29.18 20.69 29.42 20.69C29.66 20.69 29.89 20.65 30.12 20.56C30.34 20.47 30.54 20.34 30.71 20.18C30.88 20.01 31.01 19.82 31.11 19.6C31.2 19.39 31.25 19.16 31.25 18.93C31.25 18.69 31.2 18.46 31.11 18.25C31.01 18.04 30.88 17.84 30.71 17.68ZM8.26 22.98C9.29 24 10.94 24 11.95 22.98L16.25 18.69L12.56 15L8.26 19.28C7.24 20.3 7.24 21.95 8.26 22.98Z" fill="#FFFFFF" fill-opacity="1.000000" fill-rule="evenodd"/>
	</g>
</svg>
