<svg width="40.000000" height="40.000000" viewBox="0 0 40 40" fill="none" xmlns="http://www.w3.org/2000/svg" xmlns:xlink="http://www.w3.org/1999/xlink">
	<desc>
			Created with Pixso.
	</desc>
	<defs>
		<clipPath id="clip16_658">
			<rect id="Ic_Roof_Filled" width="40.000000" height="40.000000" fill="white" fill-opacity="0"/>
		</clipPath>
	</defs>
	<g clip-path="url(#clip16_658)">
		<path id="Union" d="M7.61 14.9L13.91 14.9L16.82 9.82L10.23 9.82L8.46 13.21L3.68 13.21L3.68 14.54L3.66 14.54L3.66 14.9L3.68 14.9L3.68 15.58L3.66 15.58L3.66 20.36L3.68 20.36L3.68 21.03L3.66 21.03L3.66 22.45L2.11 25.43L7.88 25.43L10.4 21.03L4.42 21.03L4.77 20.36L10.78 20.36L13.52 15.58L7.26 15.58L7.61 14.9ZM17.59 9.82L14.68 14.9L20.15 14.9L23.06 9.82L17.59 9.82ZM23.84 9.82L20.93 14.9L26.82 14.9L28.12 12.36L36.96 30.17L40.35 30.17L29.76 9.82L23.84 9.82ZM26.47 15.58L20.54 15.58L17.8 20.36L24.02 20.36L26.47 15.58ZM14.3 15.58L11.56 20.36L17.03 20.36L19.77 15.58L14.3 15.58ZM11.17 21.03L8.65 25.43L14.12 25.43L16.64 21.03L11.17 21.03ZM23.68 21.03L17.42 21.03L14.9 25.43L21.42 25.43L23.68 21.03ZM24.88 22.47L24.88 25.43L27.85 25.43L27.85 22.47L24.88 22.47ZM31.56 22.47L28.59 22.47L28.59 25.43L31.56 25.43L31.56 22.47ZM5.16 30.17L7.49 26.11L1.76 26.11L-0.36 30.17L5.16 30.17ZM11.41 30.17L13.74 26.11L8.27 26.11L5.94 30.17L11.41 30.17ZM21.07 26.11L14.51 26.11L12.19 30.17L18.99 30.17L21.07 26.11ZM24.88 26.18L24.88 29.14L27.85 29.14L27.85 26.18L24.88 26.18ZM28.59 26.18L28.59 29.14L31.56 29.14L31.56 26.18L28.59 26.18Z" fill="#FFFFFF" fill-opacity="1.000000" fill-rule="evenodd"/>
	</g>
</svg>
