<svg width="40.000000" height="40.000000" viewBox="0 0 40 40" fill="none" xmlns="http://www.w3.org/2000/svg" xmlns:xlink="http://www.w3.org/1999/xlink">
	<desc>
			Created with Pixso.
	</desc>
	<defs/>
	<path id="Vector" d="M5 9C5 8.44 5.44 8 6 8L18.08 8C18.63 8 19.08 8.44 19.08 9L19.08 13.75C19.08 14.3 18.63 14.75 18.08 14.75L6 14.75C5.44 14.75 5 14.3 5 13.75L5 9ZM5 18.12C5 17.56 5.44 17.12 6 17.12L11.95 17.12C12.51 17.12 12.95 17.56 12.95 18.12L12.95 22.87C12.95 23.43 12.51 23.87 11.95 23.87L6 23.87C5.44 23.87 5 23.43 5 22.87L5 18.12ZM15.79 17.12C15.24 17.12 14.79 17.56 14.79 18.12L14.79 22.87C14.79 23.43 15.24 23.87 15.79 23.87L27.87 23.87C28.42 23.87 28.87 23.43 28.87 22.87L28.87 18.12C28.87 17.56 28.42 17.12 27.87 17.12L15.79 17.12ZM5 27.24C5 26.69 5.44 26.24 6 26.24L18.08 26.24C18.63 26.24 19.08 26.69 19.08 27.24L19.08 32C19.08 32.55 18.63 33 18.08 33L6 33C5.44 33 5 32.55 5 32L5 27.24ZM21.91 26.24C21.36 26.24 20.91 26.69 20.91 27.24L20.91 32C20.91 32.55 21.36 33 21.91 33L34 33C34.55 33 35 32.55 35 32L35 27.24C35 26.69 34.55 26.24 34 26.24L21.91 26.24Z" fill="#FFFFFF" fill-opacity="1.000000" fill-rule="evenodd"/>
</svg>
