<svg width="40.000000" height="40.000000" viewBox="0 0 40 40" fill="none" xmlns="http://www.w3.org/2000/svg" xmlns:xlink="http://www.w3.org/1999/xlink">
	<desc>
			Created with Pixso.
	</desc>
	<defs>
		<clipPath id="clip16_664">
			<rect id="Ic_Wood-Tree-Filled" width="40.000000" height="40.000000" fill="white" fill-opacity="0"/>
		</clipPath>
	</defs>
	<rect id="Ic_Wood-Tree-Filled" width="40.000000" height="40.000000" fill="#FFFFFF" fill-opacity="0"/>
	<g clip-path="url(#clip16_664)">
		<path id="Vector" d="M34.72 2.95L31.19 2.95C30.97 2.95 30.76 3.08 30.66 3.28L27.66 9.28L24.66 3.28C24.56 3.08 24.36 2.95 24.14 2.95L11.21 2.95C10.89 2.95 10.62 3.22 10.62 3.54L10.62 18.92L5.06 15.39C4.83 15.24 4.53 15.27 4.33 15.47L1.39 18.4C1.17 18.62 1.16 18.98 1.37 19.21L10.62 29.62L10.62 36.45C10.62 36.77 10.89 37.04 11.21 37.04L17.68 37.04L17.68 27.63C17.68 27.31 17.94 27.05 18.26 27.05C18.59 27.05 18.85 27.31 18.85 27.63L18.85 37.04L34.72 37.04C35.04 37.04 35.3 36.77 35.3 36.45L35.3 3.54C35.3 3.22 35.04 2.95 34.72 2.95ZM18.85 24.11C18.85 24.43 18.59 24.7 18.26 24.7C17.94 24.7 17.68 24.43 17.68 24.11L17.68 22.93C17.68 22.61 17.94 22.34 18.26 22.34C18.59 22.34 18.85 22.61 18.85 22.93L18.85 24.11Z" fill="#FFFFFF" fill-opacity="1.000000" fill-rule="nonzero"/>
	</g>
</svg>
