<svg width="24.000000" height="24.000000" viewBox="0 0 24 24" fill="none" xmlns="http://www.w3.org/2000/svg" xmlns:xlink="http://www.w3.org/1999/xlink">
	<desc>
			Created with Pixso.
	</desc>
	<defs>
		<clipPath id="clip15_581">
			<rect id="youtube" width="24.000000" height="24.000000" fill="white" fill-opacity="0"/>
		</clipPath>
	</defs>
	<rect id="youtube" width="24.000000" height="24.000000" fill="#FFFFFF" fill-opacity="0"/>
	<g clip-path="url(#clip15_581)">
		<path id="Subtract" d="M21.83 5.15C22.17 5.51 22.42 5.94 22.54 6.41C22.85 8.17 23.01 9.96 23 11.75C23 13.51 22.85 15.26 22.54 17C22.42 17.47 22.17 17.9 21.83 18.26C21.49 18.61 21.07 18.86 20.6 19C18.88 19.45 12 19.45 12 19.45C12 19.45 5.12 19.45 3.4 19C2.93 18.87 2.51 18.63 2.17 18.29C1.83 17.95 1.59 17.54 1.46 17.08C1.14 15.32 0.98 13.53 1 11.75C0.99 9.97 1.14 8.2 1.46 6.45C1.57 5.98 1.82 5.55 2.16 5.19C2.5 4.84 2.92 4.59 3.4 4.45C5.12 4 12 4 12 4C12 4 18.88 4 20.6 4.41C21.07 4.55 21.49 4.8 21.83 5.15ZM15.5 11.75L9.75 15.01L9.75 8.48L15.5 11.75Z" fill="#FFFFFF" fill-opacity="1.000000" fill-rule="evenodd"/>
	</g>
</svg>
