<svg width="214.000000" height="36.000000" viewBox="0 0 214 36" fill="none" xmlns="http://www.w3.org/2000/svg" xmlns:xlink="http://www.w3.org/1999/xlink">
	<desc>
			Created with Pixso.
	</desc>
	<defs/>
	<path id="Vector 6 (Stroke)" d="M12.12 0.62C13.83 -0.64 16.16 -0.64 17.88 0.62L28.21 8.22C29.45 9.13 30.19 10.59 30.19 12.13L30.19 27.63L20.47 27.63L20.47 14.59L15 10.57L9.53 14.59L9.53 27.63L-0.2 27.63L-0.2 12.13C-0.2 10.59 0.54 9.13 1.78 8.22L12.12 0.62Z" fill="#FFFFFF" fill-opacity="1.000000" fill-rule="evenodd"/>
	<path id="Rectangle 51" d="M9.59 27.63L20.45 27.63L20.45 35.49L9.59 35.49L9.59 27.63Z" fill="#FFFFFF" fill-opacity="1.000000" fill-rule="evenodd"/>
	<path id="HomePro" d="M51 26.19L51 -0.63L56.58 -0.63L56.58 10.96L67.01 10.96L67.01 -0.63L72.6 -0.63L72.6 26.19L67.01 26.19L67.01 15.82L56.58 15.82L56.58 26.19L51 26.19ZM156.25 26.19L156.25 -0.63L166.55 -0.63C168.4 -0.63 170.03 -0.31 171.45 0.34C172.89 0.99 174.01 1.95 174.83 3.22C175.65 4.49 176.05 6.06 176.05 7.94C176.05 9.76 175.63 11.31 174.79 12.58C173.98 13.85 172.85 14.83 171.41 15.5C169.99 16.14 168.37 16.47 166.55 16.47L161.83 16.47L161.83 26.19L156.25 26.19ZM161.83 11.61L166.59 11.61C167.38 11.61 168.06 11.45 168.64 11.14C169.21 10.83 169.66 10.4 169.97 9.85C170.31 9.29 170.47 8.66 170.47 7.94C170.47 7.19 170.31 6.54 169.97 5.99C169.66 5.44 169.21 5.01 168.64 4.7C168.06 4.39 167.38 4.23 166.59 4.23L161.83 4.23L161.83 11.61ZM86.72 26.62C84.78 26.62 83 26.18 81.39 25.29C79.81 24.4 78.54 23.19 77.58 21.65Q77.26 21.12 77.01 20.55L77.01 20.54Q76.17 18.63 76.17 16.36Q76.17 13.86 77.16 11.83Q77.35 11.44 77.58 11.07C78.54 9.53 79.81 8.32 81.39 7.43Q82.06 7.07 82.76 6.8Q84.61 6.1 86.72 6.1C88.67 6.1 90.43 6.54 92.01 7.43C93.6 8.32 94.86 9.53 95.79 11.07C96.75 12.6 97.23 14.37 97.23 16.36C97.23 18.33 96.75 20.09 95.79 21.65C94.86 23.19 93.6 24.4 92.01 25.29C90.43 26.18 88.67 26.62 86.72 26.62ZM100.42 26.19L100.42 6.53L105.46 6.53L105.46 8.91Q105.09 9.62 104.92 10.53L105.46 11.32L105.46 8.91C105.82 8.19 106.34 7.61 107 7.18C108.11 6.46 109.43 6.1 110.96 6.1C112.6 6.1 114.02 6.52 115.25 7.36C115.98 7.84 116.54 8.41 116.95 9.08C116.6 9.59 116.3 10.17 116.04 10.82L117.59 10.67C117.46 10.09 117.25 9.56 116.95 9.08C117.47 8.32 118.09 7.71 118.81 7.25C120.01 6.49 121.42 6.1 123.02 6.1C124.44 6.1 125.69 6.41 126.77 7.04C127.87 7.66 128.74 8.54 129.36 9.66C129.98 10.77 130.3 12.06 130.3 13.55L130.3 26.19L124.9 26.19L124.9 14.71C124.9 13.94 124.75 13.28 124.46 12.73C124.2 12.17 123.82 11.74 123.31 11.43Q122.56 10.96 121.48 10.96C120.78 10.96 120.17 11.12 119.64 11.43C119.14 11.74 118.74 12.17 118.45 12.73C118.19 13.28 118.06 13.94 118.06 14.71L118.06 26.19L112.66 26.19L112.66 14.71C112.66 13.94 112.51 13.28 112.22 12.73C111.96 12.17 111.58 11.74 111.07 11.43C110.57 11.12 109.96 10.96 109.24 10.96C108.54 10.96 107.93 11.12 107.4 11.43C106.9 11.74 106.5 12.17 106.21 12.73C105.95 13.28 105.82 13.94 105.82 14.71L105.82 26.19L100.42 26.19ZM143.32 26.62C141.23 26.62 139.42 26.16 137.88 25.25C136.35 24.32 135.16 23.07 134.32 21.51C133.48 19.95 133.06 18.22 133.06 16.33C133.06 14.36 133.49 12.6 134.35 11.07Q135.14 9.7 136.25 8.68Q137.01 7.97 137.92 7.43C139.41 6.54 141.09 6.1 142.96 6.1C144.52 6.1 145.9 6.35 147.1 6.86C148.3 7.34 149.31 8.02 150.12 8.91C150.96 9.8 151.6 10.83 152.03 12.01C152.46 13.16 152.68 14.42 152.68 15.79C152.68 16.17 152.65 16.55 152.61 16.94C152.58 17.3 152.52 17.61 152.42 17.87L138.66 17.87C138.62 17.61 138.61 17.33 138.61 17.04C138.61 16.82 138.62 16.59 138.64 16.36C138.62 16.14 138.62 15.92 138.62 15.71Q138.62 14.72 138.8 13.91L146.96 13.91C146.97 14.07 146.98 14.23 146.98 14.39Q146.98 15.05 146.81 15.79L149.37 13.91L146.96 13.91C146.92 13.61 146.86 13.32 146.77 13.05C146.51 12.23 146.04 11.6 145.37 11.14C144.72 10.66 143.92 10.42 142.96 10.42Q141.71 10.42 140.77 10.96Q140.66 11.03 140.55 11.1C139.87 11.56 139.37 12.23 139.03 13.12C138.94 13.37 138.86 13.63 138.8 13.91L137.7 13.91L137.7 17.87L138.66 17.87C138.72 18.38 138.85 18.84 139.03 19.28C139.39 20.12 139.95 20.78 140.69 21.26C141.43 21.71 142.33 21.94 143.39 21.94C144.35 21.94 145.17 21.75 145.84 21.37C146.53 20.98 147.07 20.45 147.46 19.78L151.78 21.83C151.39 22.79 150.78 23.63 149.94 24.35C149.13 25.07 148.15 25.64 147.03 26.04C145.9 26.43 144.66 26.62 143.32 26.62ZM202.88 26.62C200.93 26.62 199.16 26.18 197.55 25.29C195.97 24.4 194.69 23.19 193.74 21.65C192.8 20.09 192.33 18.33 192.33 16.36C192.33 14.37 192.8 12.6 193.74 11.07C194.69 9.53 195.97 8.32 197.55 7.43Q198.22 7.07 198.92 6.8Q200.77 6.1 202.88 6.1C204.82 6.1 206.59 6.54 208.17 7.43C209.75 8.32 211.01 9.53 211.95 11.07C212.91 12.6 213.39 14.37 213.39 16.36C213.39 18.33 212.91 20.09 211.95 21.65C211.01 23.19 209.75 24.4 208.17 25.29C206.59 26.18 204.82 26.62 202.88 26.62ZM179.24 26.19L179.24 6.53L184.28 6.53L184.28 9.46C184.14 9.8 184.02 10.17 183.92 10.56L184.28 11.25L184.28 9.46Q184.92 7.87 186.04 7.22C187.05 6.62 188.24 6.32 189.6 6.32L190.76 6.32L190.76 11L189.06 11C187.74 11 186.68 11.41 185.86 12.22C185.04 13.01 184.64 14.14 184.64 15.6L184.64 26.19L179.24 26.19ZM86.72 21.76C87.71 21.76 88.56 21.53 89.28 21.08Q89.67 20.83 90.01 20.53Q90.61 19.96 91.01 19.17C91.44 18.35 91.65 17.42 91.65 16.36C91.65 15.31 91.44 14.38 91.01 13.59C90.6 12.77 90.02 12.14 89.28 11.68C88.56 11.2 87.71 10.96 86.72 10.96C85.74 10.96 84.87 11.2 84.13 11.68C83.39 12.14 82.8 12.77 82.37 13.59C81.96 14.38 81.75 15.31 81.75 16.36C81.75 17.42 81.96 18.35 82.37 19.17Q82.82 20.03 83.5 20.62Q83.8 20.87 84.13 21.08C84.87 21.53 85.74 21.76 86.72 21.76ZM202.88 21.76C203.86 21.76 204.71 21.53 205.43 21.08C206.18 20.62 206.75 19.99 207.16 19.17C207.59 18.35 207.81 17.42 207.81 16.36C207.81 15.31 207.59 14.38 207.16 13.59C206.75 12.77 206.18 12.14 205.43 11.68C204.71 11.2 203.86 10.96 202.88 10.96C201.89 10.96 201.03 11.2 200.29 11.68C199.54 12.14 198.95 12.77 198.52 13.59C198.11 14.38 197.91 15.31 197.91 16.36C197.91 17.42 198.11 18.35 198.52 19.17C198.95 19.99 199.54 20.62 200.29 21.08C201.03 21.53 201.89 21.76 202.88 21.76Z" fill="#FFFFFF" fill-opacity="1.000000" fill-rule="evenodd"/>
</svg>
