<svg width="36.000000" height="36.000000" viewBox="0 0 36 36" fill="none" xmlns="http://www.w3.org/2000/svg" xmlns:xlink="http://www.w3.org/1999/xlink">
	<desc>
			Created with Pixso.
	</desc>
	<defs/>
	<path id="Star 5" d="M16.04 6.02C16.65 4.12 19.34 4.12 19.95 6.02L21.57 11.01C21.85 11.86 22.64 12.43 23.53 12.43L28.78 12.43C30.78 12.43 31.6 14.98 29.99 16.15L25.74 19.24C25.02 19.76 24.72 20.69 25 21.54L26.62 26.54C27.23 28.43 25.07 30.01 23.45 28.84L19.2 25.75C18.48 25.22 17.51 25.22 16.79 25.75L12.54 28.84C10.92 30.01 8.76 28.43 9.37 26.54L10.99 21.54C11.27 20.69 10.97 19.76 10.25 19.24L6 16.15C4.39 14.98 5.21 12.43 7.21 12.43L12.46 12.43C13.35 12.43 14.14 11.86 14.42 11.01L16.04 6.02Z" fill="#FFA928" fill-opacity="1.000000" fill-rule="nonzero"/>
</svg>
