<svg width="48.000000" height="48.000000" viewBox="0 0 48 48" fill="none" xmlns="http://www.w3.org/2000/svg" xmlns:xlink="http://www.w3.org/1999/xlink">
	<desc>
			Created with Pixso.
	</desc>
	<defs>
		<clipPath id="clip16_655">
			<rect id="IC_phone" width="24.000006" height="23.999996" transform="translate(12.000000 12.000000)" fill="white" fill-opacity="0"/>
		</clipPath>
	</defs>
	<rect id="Icon + Container" rx="23.999996" width="48.000004" height="47.999992" fill="#FFFFFF" fill-opacity="1.000000"/>
	<rect id="IC_phone" width="24.000006" height="23.999996" transform="translate(12.000000 12.000000)" fill="#FFFFFF" fill-opacity="0"/>
	<g clip-path="url(#clip16_655)">
		<path id="Vector" d="M34 28.91L34 31.91C34 32.19 33.94 32.47 33.83 32.72C33.72 32.98 33.55 33.21 33.35 33.4C33.14 33.59 32.9 33.73 32.64 33.82C32.37 33.91 32.09 33.94 31.81 33.91C28.74 33.58 25.78 32.53 23.18 30.85C20.77 29.31 18.72 27.26 17.18 24.85C15.5 22.24 14.44 19.27 14.11 16.18C14.09 15.9 14.12 15.62 14.21 15.36C14.3 15.09 14.44 14.85 14.63 14.65C14.82 14.44 15.04 14.28 15.3 14.17C15.55 14.05 15.83 14 16.1 14L19.1 14C19.59 13.99 20.06 14.16 20.43 14.48C20.8 14.8 21.04 15.23 21.1 15.72C21.23 16.68 21.47 17.62 21.81 18.53C21.94 18.88 21.97 19.27 21.89 19.65C21.81 20.02 21.62 20.36 21.35 20.64L20.08 21.91C21.51 24.41 23.58 26.48 26.08 27.91L27.35 26.64C27.63 26.37 27.97 26.18 28.34 26.1C28.72 26.02 29.11 26.05 29.47 26.18C30.37 26.52 31.31 26.76 32.28 26.89C32.76 26.95 33.2 27.2 33.52 27.57C33.84 27.95 34.01 28.42 34 28.91Z" fill="#15B2F5" fill-opacity="1.000000" fill-rule="evenodd"/>
	</g>
</svg>
