<svg width="24.000000" height="24.000000" viewBox="0 0 24 24" fill="none" xmlns="http://www.w3.org/2000/svg" xmlns:xlink="http://www.w3.org/1999/xlink">
	<desc>
			Created with Pixso.
	</desc>
	<defs>
		<clipPath id="clip17_638">
			<rect id="Ic_24-Map-pin" width="24.000000" height="24.000000" fill="white" fill-opacity="0"/>
		</clipPath>
	</defs>
	<rect id="Ic_24-Map-pin" width="24.000000" height="24.000000" fill="#FFFFFF" fill-opacity="0"/>
	<g clip-path="url(#clip17_638)">
		<path id="Vector" d="M13.59 21.79C12.65 22.56 11.34 22.56 10.4 21.79C7.81 19.7 3 15.12 3 10C3 7.61 3.94 5.32 5.63 3.63C7.32 1.94 9.61 1 12 1C14.38 1 16.67 1.94 18.36 3.63C20.05 5.32 21 7.61 21 10C21 15.12 16.18 19.7 13.59 21.79Z" stroke="#FFFFFF" stroke-opacity="1.000000" stroke-width="2.000000" stroke-linejoin="round"/>
		<path id="Vector" d="M12 13C10.34 13 9 11.65 9 10C9 8.34 10.34 7 12 7C13.65 7 15 8.34 15 10C15 11.65 13.65 13 12 13Z" stroke="#FFFFFF" stroke-opacity="1.000000" stroke-width="2.000000" stroke-linejoin="round"/>
	</g>
</svg>
