<svg width="150.000000" height="150.000000" viewBox="0 0 150 150" fill="none" xmlns="http://www.w3.org/2000/svg" xmlns:xlink="http://www.w3.org/1999/xlink">
	<desc>
			Created with Pixso.
	</desc>
	<defs>
		<linearGradient x1="75.000015" y1="12.686523" x2="216.956055" y2="286.272522" id="paint_linear_16_697_0" gradientUnits="userSpaceOnUse">
			<stop stop-color="#FFFFFF"/>
			<stop offset="1.000000" stop-color="#13ABEC"/>
		</linearGradient>
	</defs>
	<rect id="Icon" width="150.000000" height="150.000000" fill="#FFFFFF" fill-opacity="0"/>
	<path id="Star 6" d="M66.09 18.41L59.57 25.03C57.2 27.44 53.95 28.78 50.57 28.76L41.28 28.69C34.3 28.63 28.63 34.3 28.69 41.28L28.76 50.57C28.78 53.95 27.44 57.2 25.03 59.57L18.41 66.09C13.44 70.99 13.44 79 18.41 83.9L25.03 90.42C27.44 92.79 28.78 96.04 28.76 99.42L28.69 108.71C28.63 115.69 34.3 121.36 41.28 121.3L50.57 121.23C53.95 121.21 57.2 122.55 59.57 124.96L66.09 131.58C70.99 136.55 79 136.55 83.9 131.58L90.42 124.96C92.79 122.55 96.04 121.21 99.42 121.23L108.71 121.3C115.69 121.36 121.36 115.69 121.3 108.71L121.23 99.42C121.21 96.04 122.55 92.79 124.96 90.42L131.58 83.9C136.55 79 136.55 70.99 131.58 66.09L124.96 59.57C122.55 57.2 121.21 53.95 121.23 50.57L121.3 41.28C121.36 34.3 115.69 28.63 108.71 28.69L99.42 28.76C96.04 28.78 92.79 27.44 90.42 25.03L83.9 18.41C79 13.44 70.99 13.44 66.09 18.41Z" fill="#15B2F5" fill-opacity="1.000000" fill-rule="evenodd"/>
	<path id="Star 6 (Border)" d="M64.67 17.01L58.14 23.62C57.11 24.68 55.96 25.47 54.7 25.99C53.44 26.51 52.07 26.77 50.59 26.76L41.29 26.69C39.27 26.67 37.4 27.02 35.67 27.73C33.94 28.43 32.36 29.5 30.93 30.93C29.5 32.36 28.43 33.94 27.73 35.67C27.02 37.4 26.67 39.27 26.69 41.29L26.76 50.59C26.77 52.07 26.51 53.44 25.99 54.7C25.47 55.96 24.68 57.11 23.62 58.14L17.01 64.67C15.56 66.09 14.48 67.66 13.76 69.38C13.04 71.1 12.68 72.97 12.68 75C12.68 77.02 13.04 78.89 13.76 80.61C14.48 82.33 15.56 83.9 17.01 85.32L23.62 91.85C24.68 92.88 25.47 94.03 25.99 95.29C26.51 96.55 26.77 97.92 26.76 99.4L26.69 108.7C26.67 110.72 27.02 112.59 27.73 114.32C28.43 116.05 29.5 117.63 30.93 119.06C32.36 120.49 33.94 121.56 35.67 122.27C37.4 122.97 39.27 123.32 41.29 123.3L50.59 123.23C52.07 123.22 53.44 123.48 54.7 124C55.96 124.52 57.11 125.31 58.14 126.37L64.67 132.98C66.09 134.43 67.66 135.51 69.38 136.23C71.1 136.95 72.97 137.31 75 137.31C77.02 137.31 78.89 136.95 80.61 136.23C82.33 135.51 83.9 134.43 85.32 132.98L91.85 126.37C92.88 125.31 94.03 124.52 95.29 124C96.55 123.48 97.92 123.22 99.4 123.23L108.7 123.3C110.72 123.32 112.59 122.97 114.32 122.27C116.05 121.56 117.63 120.49 119.06 119.06C120.49 117.63 121.56 116.05 122.27 114.32C122.97 112.59 123.32 110.72 123.3 108.7L123.23 99.4C123.22 97.92 123.48 96.55 124 95.29C124.52 94.03 125.31 92.88 126.37 91.85L132.99 85.32C134.43 83.9 135.51 82.33 136.23 80.61C136.95 78.89 137.31 77.02 137.31 75C137.31 72.97 136.95 71.1 136.23 69.38C135.51 67.66 134.43 66.09 132.99 64.67L126.37 58.14C125.31 57.11 124.52 55.96 124 54.7C123.48 53.44 123.22 52.07 123.23 50.59L123.3 41.29C123.32 39.27 122.97 37.4 122.27 35.67C121.56 33.94 120.49 32.36 119.06 30.93C117.63 29.5 116.05 28.43 114.32 27.73C112.59 27.02 110.72 26.67 108.7 26.69L99.4 26.76C97.92 26.77 96.55 26.51 95.29 25.99C94.03 25.47 92.88 24.68 91.85 23.62L85.32 17.01C83.9 15.56 82.33 14.48 80.61 13.76C78.89 13.04 77.02 12.68 75 12.68C72.97 12.68 71.1 13.04 69.38 13.76C67.66 14.48 66.09 15.56 64.67 17.01ZM56.23 29.7C57.97 28.98 59.56 27.89 60.99 26.43L67.51 19.81C68.54 18.77 69.68 17.99 70.93 17.46C72.17 16.94 73.53 16.68 75 16.68C76.46 16.68 77.82 16.94 79.06 17.46C80.31 17.99 81.45 18.77 82.48 19.81L89 26.43C90.43 27.89 92.02 28.98 93.76 29.7C95.5 30.42 97.39 30.77 99.43 30.76L108.73 30.69C110.19 30.67 111.55 30.93 112.8 31.44C114.05 31.95 115.19 32.73 116.23 33.76C117.27 34.8 118.04 35.94 118.55 37.19C119.06 38.44 119.32 39.8 119.3 41.26L119.24 50.56C119.22 52.6 119.57 54.49 120.29 56.23C121.01 57.97 122.1 59.56 123.56 60.99L130.18 67.51C131.22 68.54 132 69.68 132.53 70.93C133.05 72.17 133.31 73.53 133.31 75C133.31 76.46 133.05 77.82 132.53 79.06C132 80.31 131.22 81.45 130.18 82.48L123.56 89C122.1 90.43 121.01 92.02 120.29 93.76C119.57 95.5 119.22 97.39 119.24 99.43L119.3 108.73C119.32 110.19 119.06 111.55 118.55 112.8C118.04 114.05 117.27 115.19 116.23 116.23C115.19 117.27 114.05 118.04 112.8 118.55C111.55 119.06 110.19 119.32 108.73 119.3L99.43 119.23C97.39 119.22 95.5 119.57 93.76 120.29C92.02 121.01 90.43 122.1 89 123.56L82.48 130.18C81.45 131.22 80.31 132 79.06 132.53C77.82 133.05 76.46 133.31 75 133.31C73.53 133.31 72.17 133.05 70.93 132.53C69.68 132 68.54 131.22 67.51 130.18L60.99 123.56C59.56 122.1 57.97 121.01 56.23 120.29C54.49 119.57 52.6 119.22 50.56 119.23L41.26 119.3C39.8 119.32 38.44 119.06 37.19 118.55C35.94 118.04 34.8 117.27 33.76 116.23C32.73 115.19 31.95 114.05 31.44 112.8C30.93 111.55 30.68 110.19 30.69 108.73L30.76 99.43C30.77 97.39 30.42 95.5 29.7 93.76C28.98 92.02 27.89 90.43 26.43 89L19.81 82.48C18.77 81.45 17.99 80.31 17.46 79.06C16.94 77.82 16.68 76.46 16.68 75C16.68 73.53 16.94 72.17 17.46 70.93C17.99 69.68 18.77 68.54 19.81 67.52L26.43 60.99C27.89 59.56 28.98 57.97 29.7 56.23C30.42 54.49 30.77 52.6 30.76 50.56L30.69 41.26C30.68 39.8 30.93 38.44 31.44 37.19C31.95 35.94 32.73 34.8 33.76 33.76C34.8 32.73 35.94 31.95 37.19 31.44C38.44 30.93 39.8 30.67 41.26 30.69L50.56 30.76C52.6 30.77 54.49 30.42 56.23 29.7Z" fill="url(#paint_linear_16_697_0)" fill-opacity="1.000000" fill-rule="evenodd"/>
	<path id="Vector (Border)" d="M104.21 67.11L76.87 92.11C75.78 93.1 74.5 93.65 73.02 93.73C71.55 93.82 70.21 93.43 69.01 92.57L52.6 80.81C49.76 78.77 49.13 74.93 51.17 72.09C53.21 69.24 57.04 68.61 59.89 70.65L72.17 79.46L95.78 57.88C98.36 55.52 102.25 55.69 104.61 58.28C106.97 60.86 106.8 64.75 104.21 67.11Z" fill="#FFFFFF" fill-opacity="1.000000" fill-rule="evenodd"/>
</svg>
