<svg width="143.000000" height="24.000000" viewBox="0 0 143 24" fill="none" xmlns="http://www.w3.org/2000/svg" xmlns:xlink="http://www.w3.org/1999/xlink">
	<desc>
			Created with Pixso.
	</desc>
	<defs/>
	<path id="Vector 6 (Stroke)" d="M8.07 0.74C9.22 -0.1 10.77 -0.1 11.91 0.74L18.8 5.81C19.63 6.42 20.12 7.39 20.12 8.42L20.12 18.75L13.64 18.75L13.64 10.06L9.99 7.38L6.35 10.06L6.35 18.75L-0.13 18.75L-0.13 8.42C-0.13 7.39 0.36 6.42 1.19 5.81L8.07 0.74Z" fill="#15B2F5" fill-opacity="1.000000" fill-rule="evenodd"/>
	<path id="Rectangle 51" d="M6.39 18.75L13.63 18.75L13.63 24L6.39 24L6.39 18.75Z" fill="#FFFFFF" fill-opacity="1.000000" fill-rule="evenodd"/>
	<path id="HomePro" d="M34 17.79L34 -0.09L37.72 -0.09L37.72 7.64L44.68 7.64L44.68 -0.09L48.4 -0.09L48.4 17.79L44.68 17.79L44.68 10.88L37.72 10.88L37.72 17.79L34 17.79ZM104.17 17.79L104.17 -0.09L111.03 -0.09C112.26 -0.09 113.35 0.13 114.3 0.56C115.26 0.99 116.01 1.63 116.55 2.48C117.1 3.33 117.37 4.37 117.37 5.62C117.37 6.84 117.09 7.87 116.53 8.72Q116.25 9.15 115.9 9.51Q115.22 10.22 114.27 10.66C113.33 11.1 112.25 11.31 111.03 11.31L107.89 11.31L107.89 17.79L104.17 17.79ZM107.89 8.07L111.06 8.07C111.58 8.07 112.04 7.97 112.42 7.76C112.81 7.55 113.1 7.26 113.31 6.89C113.54 6.53 113.65 6.1 113.65 5.62C113.65 5.13 113.54 4.7 113.31 4.33C113.1 3.96 112.81 3.67 112.42 3.46Q111.85 3.15 111.06 3.15L107.89 3.15L107.89 8.07ZM57.81 18.08C56.52 18.08 55.33 17.78 54.26 17.19C53.21 16.6 52.36 15.79 51.72 14.77Q51.5 14.41 51.34 14.03L51.34 14.03Q50.78 12.75 50.78 11.24Q50.78 9.57 51.44 8.22Q51.57 7.96 51.72 7.71Q52.19 6.96 52.81 6.36Q53.45 5.74 54.26 5.29Q54.7 5.04 55.17 4.87Q56.4 4.4 57.81 4.4C59.11 4.4 60.29 4.7 61.34 5.29C62.4 5.88 63.24 6.69 63.86 7.71C64.5 8.74 64.82 9.91 64.82 11.24C64.82 12.55 64.5 13.73 63.86 14.77C63.24 15.79 62.4 16.6 61.34 17.19C60.29 17.78 59.11 18.08 57.81 18.08ZM66.94 17.79L66.94 4.69L70.3 4.69L70.3 6.27Q70.51 5.86 70.82 5.54Q71.05 5.3 71.33 5.12C72.07 4.64 72.95 4.4 73.97 4.4C75.06 4.4 76.01 4.68 76.83 5.24Q77.55 5.71 77.96 6.37Q77.96 6.38 77.97 6.39Q78.47 5.65 79.17 5.19Q79.19 5.18 79.21 5.17C80.01 4.66 80.94 4.4 82.01 4.4C82.96 4.4 83.79 4.61 84.51 5.02Q85 5.3 85.4 5.68Q85.89 6.15 86.24 6.77Q86.86 7.88 86.86 9.37L86.86 17.79L83.26 17.79L83.26 10.14C83.26 9.62 83.17 9.18 82.97 8.81C82.8 8.45 82.54 8.16 82.21 7.95C81.87 7.74 81.46 7.64 80.98 7.64C80.52 7.64 80.11 7.74 79.76 7.95Q79.59 8.05 79.45 8.18L79.45 8.18Q79.16 8.44 78.97 8.81C78.79 9.18 78.7 9.62 78.7 10.14L78.7 17.79L75.1 17.79L75.1 10.14C75.1 9.62 75.01 9.18 74.81 8.81C74.64 8.45 74.38 8.16 74.05 7.95C73.71 7.74 73.3 7.64 72.82 7.64C72.36 7.64 71.95 7.74 71.6 7.95Q71.43 8.05 71.29 8.18L71.29 8.18Q71 8.44 70.81 8.81C70.63 9.18 70.54 9.62 70.54 10.14L70.54 17.79L66.94 17.79ZM95.54 18.08C94.15 18.08 92.94 17.77 91.92 17.17C90.9 16.54 90.1 15.71 89.54 14.67C88.98 13.63 88.7 12.48 88.7 11.22Q88.7 9.42 89.42 7.99L89.42 7.99Q89.49 7.85 89.57 7.71C90.16 6.69 90.95 5.88 91.94 5.29C92.93 4.7 94.06 4.4 95.3 4.4C96.34 4.4 97.26 4.57 98.06 4.9C98.86 5.22 99.54 5.68 100.08 6.27C100.64 6.86 101.06 7.55 101.35 8.33C101.64 9.1 101.78 9.94 101.78 10.85C101.78 11.11 101.77 11.37 101.74 11.62C101.72 11.86 101.68 12.07 101.62 12.25L92.44 12.25C92.48 12.58 92.56 12.89 92.69 13.18C92.93 13.74 93.3 14.18 93.79 14.5C94.29 14.81 94.89 14.96 95.59 14.96C96.23 14.96 96.78 14.83 97.22 14.58C97.69 14.32 98.05 13.97 98.3 13.52L101.18 14.89C100.93 15.53 100.52 16.09 99.96 16.57C99.42 17.05 98.77 17.42 98.02 17.7C97.26 17.95 96.44 18.08 95.54 18.08ZM135.25 18.08C133.96 18.08 132.77 17.78 131.7 17.19C130.64 16.6 129.8 15.79 129.16 14.77C128.53 13.73 128.22 12.55 128.22 11.24C128.22 9.91 128.53 8.74 129.16 7.71C129.8 6.69 130.64 5.88 131.7 5.29Q132.14 5.04 132.61 4.87L132.61 4.87Q133.84 4.4 135.25 4.4C136.55 4.4 137.72 4.7 138.78 5.29C139.84 5.88 140.67 6.69 141.3 7.71Q141.49 8.01 141.64 8.33Q142.26 9.64 142.26 11.24Q142.26 12.69 141.74 13.92L141.74 13.92Q141.55 14.36 141.3 14.77C140.67 15.79 139.84 16.6 138.78 17.19C137.72 17.78 136.55 18.08 135.25 18.08ZM119.49 17.79L119.49 4.69L122.85 4.69L122.85 6.64C123.14 5.93 123.53 5.43 124.03 5.14Q125.03 4.54 126.4 4.54L127.17 4.54L127.17 7.66L126.04 7.66C125.16 7.66 124.45 7.93 123.91 8.48C123.36 9.01 123.09 9.76 123.09 10.74L123.09 17.79L119.49 17.79ZM92.53 9.61L97.97 9.61C97.95 9.41 97.91 9.21 97.85 9.03C97.67 8.49 97.36 8.06 96.91 7.76C96.48 7.44 95.94 7.28 95.3 7.28C94.68 7.28 94.14 7.43 93.7 7.74C93.25 8.04 92.91 8.49 92.69 9.08C92.62 9.25 92.57 9.42 92.53 9.61ZM57.81 14.84C58.47 14.84 59.04 14.69 59.52 14.38C60.01 14.08 60.4 13.66 60.67 13.11C60.96 12.57 61.1 11.94 61.1 11.24C61.1 10.54 60.96 9.92 60.67 9.39C60.4 8.85 60.01 8.42 59.52 8.12C59.04 7.8 58.47 7.64 57.81 7.64C57.16 7.64 56.58 7.8 56.09 8.12C55.59 8.42 55.2 8.85 54.91 9.39C54.64 9.92 54.5 10.54 54.5 11.24C54.5 11.94 54.64 12.57 54.91 13.11Q55.21 13.68 55.67 14.08L55.67 14.08Q55.86 14.25 56.09 14.38C56.58 14.69 57.16 14.84 57.81 14.84ZM135.25 14.84C135.91 14.84 136.48 14.69 136.96 14.38C137.45 14.08 137.84 13.66 138.11 13.11C138.39 12.57 138.54 11.94 138.54 11.24C138.54 10.54 138.39 9.92 138.11 9.39C137.84 8.85 137.45 8.42 136.96 8.12Q136.86 8.05 136.76 8L136.76 8Q136.1 7.64 135.25 7.64C134.6 7.64 134.02 7.8 133.52 8.12C133.03 8.42 132.64 8.85 132.35 9.39C132.08 9.92 131.94 10.54 131.94 11.24C131.94 11.94 132.08 12.57 132.35 13.11C132.64 13.66 133.03 14.08 133.52 14.38C134.02 14.69 134.6 14.84 135.25 14.84Z" fill="#FFFFFF" fill-opacity="1.000000" fill-rule="evenodd"/>
</svg>
